<?xml version="1.0" encoding="UTF-8" standalone="no"?>
<!-- Created with Inkscape (http://www.inkscape.org/) -->

<svg
   width="180"
   height="180"
   viewBox="0 0 180 180"
   version="1.1"
   id="svg5"
   inkscape:version="1.1.1 (eb90963e84, 2021-10-02)"
   sodipodi:docname="hikayaats.svg"
   inkscape:export-filename="/home/abi/Pictures/hikayaats.png"
   inkscape:export-xdpi="96"
   inkscape:export-ydpi="96"
   xmlns:inkscape="http://www.inkscape.org/namespaces/inkscape"
   xmlns:sodipodi="http://sodipodi.sourceforge.net/DTD/sodipodi-0.dtd"
   xmlns="http://www.w3.org/2000/svg"
   xmlns:svg="http://www.w3.org/2000/svg">
  <sodipodi:namedview
     id="namedview7"
     pagecolor="#ffffff"
     bordercolor="#666666"
     borderopacity="1.0"
     inkscape:pageshadow="2"
     inkscape:pageopacity="0.0"
     inkscape:pagecheckerboard="0"
     inkscape:document-units="px"
     showgrid="false"
     inkscape:zoom="3.3155451"
     inkscape:cx="41.47131"
     inkscape:cy="102.69804"
     inkscape:window-width="1920"
     inkscape:window-height="1016"
     inkscape:window-x="1920"
     inkscape:window-y="27"
     inkscape:window-maximized="1"
     inkscape:current-layer="layer1" />
  <defs
     id="defs2" />
  <g
     inkscape:label="Layer 1"
     inkscape:groupmode="layer"
     id="layer1">
    <g
       id="g81"
       transform="translate(-6.0760771,0.90476429)"
       inkscape:export-filename="/home/abi/Pictures/g81.png"
       inkscape:export-xdpi="96"
       inkscape:export-ydpi="96">
      <path
         style="fill:#8c8c8c;fill-opacity:1;stroke-width:0.239422"
         d="m 38.827164,112.43594 c 0.174966,-0.0683 0.384018,-0.0599 0.46456,0.0187 0.08054,0.0786 -0.06262,0.13448 -0.318122,0.12421 -0.282359,-0.0114 -0.339791,-0.0674 -0.146438,-0.14288 z m 3.150926,0 c 0.174966,-0.0683 0.384018,-0.0599 0.46456,0.0187 0.08054,0.0786 -0.06262,0.13448 -0.318122,0.12421 -0.282359,-0.0114 -0.339791,-0.0674 -0.146438,-0.14288 z m -9.195871,-2.61734 c -0.301488,-0.3751 -0.292915,-0.38347 0.09151,-0.0893 0.233289,0.17852 0.424163,0.36477 0.424163,0.41388 0,0.19465 -0.199039,0.0694 -0.515676,-0.32459 z m -1.211895,-1.1825 c -0.301487,-0.37511 -0.292914,-0.38347 0.09151,-0.0893 0.23329,0.17853 0.424163,0.36477 0.424163,0.41388 0,0.19465 -0.199039,0.0694 -0.515676,-0.32458 z m 8.226356,-0.69369 c 0.174966,-0.0683 0.384017,-0.0599 0.46456,0.0187 0.08054,0.0786 -0.06262,0.13449 -0.318122,0.12422 -0.28236,-0.0114 -0.339791,-0.0674 -0.146438,-0.14289 z m 2.908547,0 c 0.174966,-0.0683 0.384017,-0.0599 0.46456,0.0187 0.08054,0.0786 -0.06262,0.13449 -0.318122,0.12422 -0.28236,-0.0114 -0.339791,-0.0674 -0.146438,-0.14289 z m 12.164392,-1.34674 c 0,-0.0491 0.190873,-0.23536 0.424163,-0.41388 0.384427,-0.29418 0.393,-0.28581 0.09151,0.0893 -0.316636,0.39395 -0.515675,0.51923 -0.515675,0.32458 z m 40.2349,0 c 0,-0.0491 0.190874,-0.23536 0.424163,-0.41388 0.384428,-0.29418 0.393001,-0.28581 0.09151,0.0893 -0.316637,0.39395 -0.515676,0.51923 -0.515676,0.32458 z m -61.215925,-1.38884 -0.711889,-0.76863 0.787732,0.69463 c 0.433252,0.38204 0.787731,0.72792 0.787731,0.76863 0,0.18271 -0.199994,0.0219 -0.863574,-0.69463 z m 24.495519,-1.83289 c 1.060211,-1.0406 1.982194,-1.89201 2.048848,-1.89201 0.06666,0 -0.746258,0.85141 -1.806469,1.89201 -1.060212,1.04061 -1.982194,1.89201 -2.048849,1.89201 -0.06665,0 0.746258,-0.8514 1.80647,-1.89201 z m 82.424417,-1.01533 c 0.091,-0.23324 0.22655,-0.3645 0.30117,-0.29168 0.0746,0.0728 1.6e-4,0.26365 -0.16549,0.42408 -0.23938,0.23183 -0.26722,0.20467 -0.13568,-0.1324 z m -0.11764,-2.19714 c 0.0116,-0.275512 0.0691,-0.331551 0.14644,-0.14289 0.07,0.17073 0.0614,0.37471 -0.0191,0.4533 -0.0805,0.0786 -0.13782,-0.0611 -0.1273,-0.31041 z M 28.973345,99.353423 c 0,-0.325189 0.05501,-0.458221 0.122252,-0.295627 0.06724,0.162595 0.06724,0.428659 0,0.591254 -0.06724,0.162594 -0.122252,0.02956 -0.122252,-0.295627 z m 33.288831,0 c 0.241285,-0.260151 0.493236,-0.473003 0.55989,-0.473003 0.06665,0 -0.07623,0.212852 -0.317511,0.473003 -0.241286,0.260151 -0.493237,0.473003 -0.559891,0.473003 -0.06665,0 0.07623,-0.212852 0.317512,-0.473003 z m 69.396114,0.311446 c 0.17497,-0.06832 0.38402,-0.05992 0.46456,0.01866 0.0805,0.07859 -0.0626,0.134484 -0.31812,0.124215 -0.28236,-0.01135 -0.33979,-0.06739 -0.14644,-0.142884 z M 89.484358,99.428368 c 0.174966,-0.06832 0.38402,-0.05992 0.46456,0.01866 0.08054,0.07859 -0.06262,0.134484 -0.318122,0.124215 -0.282359,-0.01135 -0.339791,-0.06739 -0.146438,-0.142885 z m 27.631192,0 c 0.17497,-0.06832 0.38403,-0.05992 0.46457,0.01866 0.0805,0.07859 -0.0626,0.134484 -0.31813,0.124215 -0.28236,-0.01135 -0.33979,-0.06739 -0.14644,-0.142885 z M 60.807902,96.751909 c 1.461846,-1.430833 2.712436,-2.601514 2.77909,-2.601514 0.06665,0 -1.074866,1.170681 -2.536711,2.601514 -1.461845,1.430833 -2.712436,2.601514 -2.77909,2.601514 -0.06665,0 1.074866,-1.170681 2.536711,-2.601514 z m 66.744478,1.951135 c -0.30149,-0.375105 -0.29292,-0.38347 0.0915,-0.08929 0.23329,0.178523 0.42416,0.364768 0.42416,0.413877 0,0.19465 -0.19904,0.06937 -0.51567,-0.324584 z m -96.605642,-1.00513 c 0,-0.715416 0.04544,-1.008087 0.100972,-0.650378 0.05554,0.357708 0.05554,0.943048 0,1.300757 -0.05553,0.357708 -0.100972,0.06504 -0.100972,-0.650379 z m 54.560786,0.650379 -0.46173,-0.532128 0.545353,0.450532 c 0.299944,0.247792 0.545352,0.48725 0.545352,0.532128 0,0.18926 -0.195064,0.04954 -0.628975,-0.450532 z m 27.631196,0 -0.46173,-0.532128 0.54535,0.450532 c 0.29995,0.247792 0.54536,0.48725 0.54536,0.532128 0,0.18926 -0.19507,0.04954 -0.62898,-0.450532 z m 27.30979,-0.551836 c 0.0116,-0.275512 0.0691,-0.331551 0.14644,-0.142887 0.07,0.170723 0.0614,0.374708 -0.0191,0.453295 -0.0805,0.07859 -0.13783,-0.0611 -0.12731,-0.310408 z m -19.40945,0.04866 c 0,-0.04911 0.19088,-0.235354 0.42417,-0.413877 0.38442,-0.294177 0.393,-0.285812 0.0915,0.08929 -0.31664,0.393952 -0.51568,0.519234 -0.51568,0.324584 z M 63.837639,97.608621 c 0,-0.04911 0.190873,-0.235355 0.424163,-0.413878 0.384427,-0.294176 0.393,-0.285811 0.09151,0.08929 -0.316636,0.393952 -0.515675,0.519234 -0.515675,0.324584 z M 139.479,97.086953 c 0.0116,-0.275512 0.0691,-0.331551 0.14643,-0.142887 0.07,0.170723 0.0614,0.374708 -0.0191,0.453295 -0.0805,0.07859 -0.13783,-0.0611 -0.1273,-0.310408 z m -13.08846,-0.946005 c 0.0116,-0.275512 0.0691,-0.331551 0.14643,-0.142887 0.07,0.170723 0.0614,0.374708 -0.0191,0.453295 -0.0805,0.07859 -0.13783,-0.0611 -0.1273,-0.310408 z m 12.39701,-0.235411 c 0.23012,-0.234427 0.47056,-0.375323 0.53433,-0.313104 0.0638,0.06222 -0.12451,0.254021 -0.41839,0.42623 -0.51053,0.299155 -0.51569,0.294115 -0.11594,-0.113126 z M 66.746186,94.297603 c 0,-0.04911 0.190873,-0.235354 0.424163,-0.413877 0.384427,-0.294177 0.393,-0.285812 0.09151,0.08929 -0.316636,0.393952 -0.515675,0.519234 -0.515675,0.324584 z m 59.452154,-1.211464 c 0.002,-0.650378 0.0489,-0.888372 0.10461,-0.528876 0.0557,0.359496 0.0542,0.891624 -0.003,1.182507 -0.0575,0.290882 -0.10311,-0.0033 -0.10129,-0.653631 z M 67.95808,92.878595 c 0,-0.04911 0.190874,-0.235354 0.424163,-0.413877 0.384428,-0.294177 0.393001,-0.285812 0.09151,0.08929 -0.316637,0.393952 -0.515676,0.519234 -0.515676,0.324584 z m 26.661681,0 c 0,-0.04911 0.190874,-0.235354 0.424164,-0.413877 0.384427,-0.294177 0.393,-0.285812 0.09151,0.08929 -0.316636,0.393952 -0.515676,0.519234 -0.515676,0.324584 z M 83.5086,92.258385 c 0,-0.32519 0.05502,-0.458221 0.122254,-0.295627 0.06724,0.162595 0.06724,0.428659 0,0.591253 -0.06724,0.162595 -0.122254,0.02956 -0.122254,-0.295626 z m 27.6312,0 c 0,-0.32519 0.055,-0.458221 0.12225,-0.295627 0.0672,0.162595 0.0672,0.428659 0,0.591253 -0.0672,0.162595 -0.12225,0.02956 -0.12225,-0.295626 z m 11.35354,0.383709 c 0,-0.04911 0.19087,-0.235354 0.42416,-0.413877 0.38443,-0.294177 0.393,-0.285812 0.0915,0.08929 -0.31663,0.393952 -0.51567,0.519234 -0.51567,0.324584 z m 15.26987,0 c 0,-0.04911 0.19087,-0.235354 0.42416,-0.413877 0.38443,-0.294177 0.393,-0.285812 0.0915,0.08929 -0.31663,0.393952 -0.51567,0.519234 -0.51567,0.324584 z m -9.41451,-1.093213 c 0,-0.325189 0.055,-0.458221 0.12225,-0.295627 0.0672,0.162595 0.0672,0.428659 0,0.591254 -0.0672,0.162594 -0.12225,0.02956 -0.12225,-0.295627 z M 66.261428,91.194129 c 0.313093,-0.325189 0.623793,-0.591253 0.690448,-0.591253 0.06665,0 -0.134976,0.266064 -0.448069,0.591253 -0.313093,0.325189 -0.623794,0.591253 -0.690448,0.591253 -0.06665,0 0.134976,-0.266064 0.448069,-0.591253 z m 2.908547,0.265458 c 0,-0.04911 0.190873,-0.235354 0.424163,-0.413877 0.384427,-0.294177 0.393,-0.285812 0.09151,0.08929 -0.316637,0.393952 -0.515676,0.519234 -0.515676,0.324583 z m 69.874455,-0.974962 c 0.002,-0.650378 0.0489,-0.888372 0.1046,-0.528876 0.0557,0.359496 0.0542,0.891624 -0.003,1.182507 -0.0575,0.290882 -0.10311,-0.0033 -0.10129,-0.653631 z M 96.385737,89.53862 c 0.0019,-0.650378 0.04889,-0.888372 0.104603,-0.528876 0.05571,0.359496 0.05422,0.891624 -0.0033,1.182506 -0.05753,0.290883 -0.103113,-0.0033 -0.101295,-0.65363 z m 44.043643,0.974962 c 0,-0.04911 0.19087,-0.235354 0.42416,-0.413877 0.38443,-0.294177 0.393,-0.285812 0.0915,0.08929 -0.31663,0.393952 -0.51567,0.519233 -0.51567,0.324583 z M 55.111998,90.04058 c 0,-0.04911 0.190873,-0.235354 0.424163,-0.413877 0.384427,-0.294177 0.393,-0.285812 0.09151,0.08929 -0.316636,0.393952 -0.515675,0.519234 -0.515675,0.324584 z m 15.51225,-0.236501 c 0,-0.04911 0.190874,-0.235355 0.424163,-0.413878 0.384428,-0.294176 0.393001,-0.285811 0.09151,0.08929 -0.316636,0.393952 -0.515676,0.519234 -0.515676,0.324584 z m -1.817842,-1.329715 c 0.241286,-0.260151 0.493237,-0.473002 0.559891,-0.473002 0.06665,0 -0.07623,0.212851 -0.317512,0.473002 -0.241285,0.260152 -0.493236,0.473003 -0.55989,0.473003 -0.06665,0 0.07623,-0.212851 0.317511,-0.473003 z m 16.622092,-0.374459 c 0.01163,-0.275512 0.06906,-0.331551 0.146436,-0.142887 0.07002,0.170723 0.06141,0.374705 -0.01912,0.453295 -0.08054,0.07859 -0.137826,-0.0611 -0.127302,-0.310408 z m 27.631202,0 c 0.0116,-0.275512 0.0691,-0.331551 0.14643,-0.142887 0.07,0.170723 0.0614,0.374705 -0.0191,0.453295 -0.0805,0.07859 -0.13783,-0.0611 -0.12731,-0.310408 z m 26.17692,0 c 0.0116,-0.275512 0.0691,-0.331551 0.14643,-0.142887 0.07,0.170723 0.0614,0.374705 -0.0191,0.453295 -0.0805,0.07859 -0.13783,-0.0611 -0.1273,-0.310408 z m -13.08846,-1.182507 c 0.0116,-0.275512 0.0691,-0.331551 0.14643,-0.142887 0.07,0.170724 0.0614,0.374706 -0.0191,0.453295 -0.0805,0.07859 -0.13783,-0.0611 -0.1273,-0.310408 z m -42.840674,-1.3993 c 9.7e-4,-0.910529 0.04488,-1.254038 0.09735,-0.763355 0.05247,0.490686 0.05159,1.235665 -0.0019,1.655509 -0.05354,0.419847 -0.09647,0.01838 -0.0954,-0.892154 z m 27.631194,0 c 9.7e-4,-0.910529 0.0449,-1.254038 0.0974,-0.763355 0.0525,0.490686 0.0516,1.235665 -0.002,1.655509 -0.0536,0.419847 -0.0965,0.01838 -0.0954,-0.892154 z m 37.24682,1.447965 c 0,-0.04911 0.19088,-0.235354 0.42417,-0.413877 0.38442,-0.294177 0.393,-0.285812 0.0915,0.08929 -0.31664,0.393952 -0.51568,0.519234 -0.51568,0.324584 z M 70.987817,86.109352 c 0.241286,-0.260152 0.493236,-0.473003 0.55989,-0.473003 0.06665,0 -0.07623,0.212851 -0.317511,0.473003 -0.241286,0.260151 -0.493237,0.473002 -0.559891,0.473002 -0.06665,0 0.07623,-0.212851 0.317512,-0.473002 z m 14.226418,-0.591254 c 0.0049,-0.390227 0.05926,-0.521234 0.120715,-0.291126 0.06145,0.230109 0.05741,0.549386 -0.009,0.709504 -0.06639,0.160119 -0.116673,-0.02815 -0.111734,-0.418378 z m 27.631195,0 c 0.005,-0.390227 0.0593,-0.521234 0.12072,-0.291126 0.0615,0.230109 0.0574,0.549386 -0.009,0.709504 -0.0664,0.160119 -0.11667,-0.02815 -0.11173,-0.418378 z M 75.229448,85.310554 c 0,-0.04911 0.190873,-0.235354 0.424163,-0.413877 0.384427,-0.294177 0.393,-0.285812 0.09151,0.08929 -0.316637,0.393952 -0.515676,0.519233 -0.515676,0.324583 z m 52.934242,-3.103473 c 4.8e-4,-1.82106 0.0384,-2.534776 0.0845,-1.586037 0.0461,0.948739 0.0458,2.438697 -7.2e-4,3.311018 -0.0465,0.872321 -0.0842,0.09608 -0.0838,-1.724981 z m -81.82278,2.321707 c 0.174966,-0.06832 0.384018,-0.05992 0.464561,0.01866 0.08054,0.07859 -0.06262,0.134484 -0.318123,0.124215 -0.282359,-0.01135 -0.339791,-0.06739 -0.146438,-0.142885 z M 147.0948,84.217341 c 0.24128,-0.260151 0.49323,-0.473002 0.55989,-0.473002 0.0667,0 -0.0762,0.212851 -0.31751,0.473002 -0.24129,0.260152 -0.49324,0.473003 -0.55989,0.473003 -0.0667,0 0.0762,-0.212851 0.31751,-0.473003 z m -98.219447,0.07261 c 0.235827,-0.05996 0.563039,-0.05602 0.727137,0.0088 0.164097,0.06478 -0.02885,0.113844 -0.428776,0.109025 -0.399925,-0.0048 -0.534189,-0.05782 -0.298361,-0.117787 z m 49.399228,-0.210567 c 0.01163,-0.275512 0.06906,-0.331551 0.146436,-0.142887 0.07002,0.170723 0.06141,0.374706 -0.01912,0.453295 -0.08054,0.07859 -0.137826,-0.0611 -0.127302,-0.310408 z m -46.010536,-0.02507 c 0.23329,-0.05949 0.615037,-0.05949 0.848326,0 0.23329,0.05949 0.04242,0.108159 -0.424163,0.108159 -0.466579,0 -0.657452,-0.04867 -0.424163,-0.108159 z m 20.905182,-0.309975 c 0.241286,-0.260152 0.493236,-0.473003 0.55989,-0.473003 0.06665,0 -0.07623,0.212851 -0.317511,0.473003 -0.241286,0.260151 -0.493236,0.473002 -0.55989,0.473002 -0.06665,0 0.07623,-0.212851 0.317511,-0.473002 z m -16.537749,0.07261 c 0.235828,-0.05996 0.563039,-0.05602 0.727137,0.0088 0.164098,0.06479 -0.02885,0.113845 -0.428776,0.109025 -0.399925,-0.0048 -0.534188,-0.05783 -0.298361,-0.117787 z m 3.267503,-0.229238 c 0.166636,-0.06561 0.439312,-0.06561 0.605947,0 0.166636,0.06561 0.0303,0.119289 -0.302973,0.119289 -0.333271,0 -0.469609,-0.05368 -0.302974,-0.119289 z m 2.438938,-0.241428 c 0.174966,-0.06832 0.384018,-0.05992 0.46456,0.01866 0.08054,0.07859 -0.06262,0.134484 -0.318122,0.124215 -0.282359,-0.01135 -0.339791,-0.06739 -0.146438,-0.142884 z M 44.1595,83.10978 c 0.174966,-0.06832 0.384018,-0.05992 0.46456,0.01866 0.08054,0.07859 -0.06262,0.134484 -0.318122,0.124215 -0.282359,-0.01135 -0.339791,-0.06739 -0.146438,-0.142885 z m 1.923883,-0.231575 c 0.166635,-0.06561 0.439312,-0.06561 0.605947,0 0.166636,0.06561 0.0303,0.119289 -0.302974,0.119289 -0.333271,0 -0.469609,-0.05368 -0.302973,-0.119289 z m 99.390507,-0.0049 c 0.17496,-0.06832 0.38402,-0.05992 0.46456,0.01866 0.0805,0.07859 -0.0626,0.134484 -0.31812,0.124215 -0.28236,-0.01135 -0.33979,-0.06739 -0.14644,-0.142885 z M 53.718319,82.621464 c 1.966299,-0.03975 5.183879,-0.03975 7.150178,0 1.966299,0.03975 0.357509,0.07228 -3.575089,0.07228 -3.932598,0 -5.541388,-0.03252 -3.575089,-0.07228 z m 23.226917,-0.19759 c 0.01163,-0.275512 0.06906,-0.331551 0.146436,-0.142887 0.07002,0.170723 0.06141,0.374706 -0.01912,0.453295 -0.08054,0.07859 -0.137826,-0.0611 -0.127302,-0.310408 z m 49.240014,-0.808047 c 0,-0.455265 0.0499,-0.641509 0.11085,-0.413877 0.061,0.227633 0.061,0.600122 0,0.827755 -0.061,0.227632 -0.11085,0.04139 -0.11085,-0.413878 z M 85.006095,80.19682 c 0,-0.975568 0.04278,-1.374664 0.09507,-0.88688 0.05229,0.487784 0.05229,1.285976 0,1.77376 -0.05229,0.487783 -0.09507,0.08869 -0.09507,-0.88688 z m 27.631195,0 c 0,-0.975568 0.0428,-1.374664 0.0951,-0.88688 0.0523,0.487784 0.0523,1.285976 0,1.77376 -0.0523,0.487783 -0.0951,0.08869 -0.0951,-0.88688 z m 33.80611,-1.817066 c 0.17497,-0.06832 0.38402,-0.05992 0.46456,0.01866 0.0805,0.07859 -0.0626,0.134484 -0.31812,0.124216 -0.28236,-0.01135 -0.33979,-0.06739 -0.14644,-0.142885 z m 3.63569,0 c 0.17496,-0.06832 0.38402,-0.05992 0.46456,0.01866 0.0805,0.07859 -0.0626,0.134484 -0.31812,0.124216 -0.28236,-0.01135 -0.33979,-0.06739 -0.14644,-0.142885 z m 3.87806,0 c 0.17497,-0.06832 0.38402,-0.05992 0.46456,0.01866 0.0805,0.07859 -0.0626,0.134484 -0.31812,0.124216 -0.28236,-0.01135 -0.33979,-0.06739 -0.14644,-0.142885 z M 83.067064,76.649301 c 0,-0.975568 0.04278,-1.374664 0.09507,-0.88688 0.05229,0.487784 0.05229,1.285976 0,1.773759 -0.05229,0.487784 -0.09507,0.08869 -0.09507,-0.886879 z m 27.631196,0 c 0,-0.975568 0.0428,-1.374664 0.0951,-0.88688 0.0523,0.487784 0.0523,1.285976 0,1.773759 -0.0523,0.487784 -0.0951,0.08869 -0.0951,-0.886879 z m 47.44391,1.044548 c 0.0116,-0.275512 0.0691,-0.331551 0.14644,-0.142887 0.07,0.170723 0.0614,0.374705 -0.0191,0.453295 -0.0805,0.07859 -0.13783,-0.0611 -0.12731,-0.310408 z m -30.27823,-2.700057 c 0,-0.32519 0.055,-0.458221 0.12226,-0.295627 0.0672,0.162595 0.0672,0.428659 0,0.591253 -0.0672,0.162595 -0.12226,0.02956 -0.12226,-0.295626 z M 84.766915,70.263766 c 0,-1.105643 0.04175,-1.557952 0.09278,-1.00513 0.05103,0.552822 0.05103,1.457439 0,2.010261 -0.05103,0.552821 -0.09278,0.100513 -0.09278,-1.005131 z m 27.631195,0 c 0,-1.105643 0.0417,-1.557952 0.0928,-1.00513 0.051,0.552822 0.051,1.457439 0,2.010261 -0.051,0.552821 -0.0928,0.100513 -0.0928,-1.005131 z m 19.79038,-0.08929 c 0,-0.04911 0.19088,-0.235354 0.42417,-0.413877 0.38442,-0.294177 0.393,-0.285812 0.0915,0.08929 -0.31664,0.393952 -0.51568,0.519234 -0.51568,0.324584 z m 0.36357,-1.802717 c 0.65652,-0.650378 1.24821,-1.182506 1.31486,-1.182506 0.0667,0 -0.41596,0.532128 -1.07248,1.182506 -0.65652,0.650379 -1.24821,1.182506 -1.31486,1.182506 -0.0667,0 0.41596,-0.532127 1.07248,-1.182506 z m 4.74553,-0.610961 c 0.0116,-0.275512 0.0691,-0.331551 0.14643,-0.142887 0.07,0.170723 0.0614,0.374706 -0.0191,0.453295 -0.0805,0.07859 -0.13783,-0.0611 -0.1273,-0.310408 z"
         id="path85" />
      <path
         style="fill:#333333;fill-opacity:1;stroke-width:0.239422"
         d="m 38.024284,112.24414 c -1.960928,-0.42574 -2.944022,-0.86079 -4.464891,-1.97584 -1.758828,-1.28951 -3.267699,-3.33538 -3.943556,-5.34705 -0.727573,-2.1656 -0.722962,-5.951981 0.01056,-8.674425 1.324145,-4.914504 4.905297,-9.290276 9.337099,-11.4089 3.616623,-1.728928 6.279604,-2.044004 17.111656,-2.024599 10.658649,0.01908 9.834658,0.516859 -1.932674,1.167514 -8.396272,0.464257 -11.190637,0.918387 -14.406937,2.341363 -6.193211,2.740037 -9.53203,7.795046 -8.645539,13.089432 0.536325,3.203095 2.193053,5.761675 4.66485,7.204185 3.606548,2.10475 8.034301,1.94098 12.964332,-0.47951 5.545691,-2.72275 10.734909,-7.331643 21.882953,-19.435705 3.78147,-4.105755 4.052421,-4.359062 5.691016,-5.320413 l 0.94252,-0.552969 -0.178248,1.159814 c -0.258197,1.680039 -0.560625,2.120081 -3.163598,4.603141 -1.290883,1.231417 -3.722081,3.835322 -5.402664,5.786457 -12.313404,14.295715 -18.119887,18.801575 -25.740493,19.974745 -1.995807,0.30725 -2.913201,0.28644 -4.726389,-0.10724 z m 51.850784,-3.61654 c 1.031589,-2.85294 1.338198,-3.29813 2.644747,-3.84016 1.090172,-0.45227 2.944501,-1.4558 4.687373,-2.53673 l 0.527206,-0.32697 -0.307633,1.2913 c -0.425944,1.78792 -1.131473,2.59515 -3.828273,4.38011 -1.28859,0.8529 -3.401931,1.92783 -3.790159,1.92783 -0.169357,0 -0.146596,-0.30539 0.06674,-0.89538 z m 50.471052,-7.77836 c -0.21948,-0.933318 -0.52193,-2.503095 -0.67212,-3.48839 -0.15019,-0.985295 -0.35197,-1.791447 -0.44841,-1.791447 -0.0965,0 -0.38313,0.225475 -0.63708,0.501054 -0.79727,0.865171 -3.45468,2.605418 -4.6488,3.044343 -4.91201,1.80552 -7.55981,-0.03798 -7.57162,-5.271672 -0.002,-0.806571 -0.0715,-1.715157 -0.15494,-2.019083 -0.13444,-0.489943 -0.24179,-0.387944 -0.94685,0.899684 -1.6527,3.018239 -4.16281,5.501779 -6.30653,6.239789 -2.54891,0.8775 -4.34016,0.682088 -5.59761,-0.610656 -1.98014,-2.035718 -2.08432,-2.78827 -2.50571,-18.100391 l -0.22952,-8.340144 0.6,-1.829411 c 0.33,-1.006176 0.69223,-1.968126 0.80495,-2.137666 0.2319,-0.348778 0.5212,4.849449 0.52389,9.413554 0.002,3.526164 0.39716,9.921475 0.744,12.043532 0.34146,2.089174 1.079,3.644705 2.19425,4.627831 0.83708,0.737908 1.08958,0.829732 2.28168,0.829732 1.7527,0 3.11742,-0.687997 5.36933,-2.706828 1.17481,-1.053218 1.96435,-2.0031 2.42379,-2.916007 l 0.68139,-1.353953 0.005,-5.55778 c 0.005,-5.236829 0.0373,-5.63605 0.56105,-6.913166 0.30573,-0.745464 0.64303,-1.40794 0.74954,-1.472169 0.31036,-0.187164 0.49642,2.062081 0.51755,6.256824 0.0382,7.58999 0.33931,12.660502 0.79175,13.334266 0.7292,1.085905 1.46756,1.387233 3.35671,1.369888 2.02244,-0.01857 3.91209,-0.796593 5.7968,-2.386707 l 1.11389,-0.939771 0.15493,-2.200445 c 0.28332,-4.023587 1.43818,-7.519669 2.98138,-9.025452 1.66873,-1.628261 3.84751,-2.110923 8.5624,-1.896816 3.07971,0.139853 3.38721,0.113098 4.97908,-0.433209 0.93316,-0.320248 1.8738,-0.659166 2.09031,-0.753152 0.35051,-0.152151 0.36859,-0.03627 0.16492,1.057094 -0.50846,2.729686 -0.57441,2.815704 -3.21311,4.191075 -3.72029,1.939135 -5.23521,3.105025 -10.00977,7.703551 l -4.42341,4.260329 v 1.364445 c 0,0.750444 0.11888,2.430753 0.26419,3.734017 0.32887,2.949767 0.17735,3.505047 -0.34745,1.273307 z m 2.27002,-12.279341 c 1.13018,-1.118138 3.02585,-2.889509 4.21261,-3.936382 l 2.15774,-1.903402 -2.27893,0.116789 c -3.56156,0.182522 -5.27179,1.37372 -6.15938,4.290081 -0.38063,1.25064 -0.49187,3.465891 -0.17405,3.465891 0.10293,0 1.11183,-0.914839 2.24201,-2.032977 z M 87.252489,99.356462 C 86.35878,99.080065 85.245505,98.051304 84.68989,96.98841 83.724213,95.141061 83.594063,93.653877 83.225252,80.252471 l -0.229523,-8.340144 0.599999,-1.829411 c 0.330002,-1.006176 0.692232,-1.968126 0.804958,-2.137666 0.231901,-0.348778 0.521197,4.849449 0.523892,9.413554 0.0022,3.526164 0.397152,9.921475 0.743992,12.043532 0.341463,2.089174 1.079008,3.644705 2.194256,4.627831 0.837359,0.738158 1.08935,0.829732 2.28328,0.829732 2.138145,0 4.355547,-1.309425 5.727562,-3.382255 0.695678,-1.051021 0.740201,-1.241787 0.598523,-2.564414 -0.08419,-0.785908 -0.37895,-1.924531 -0.655032,-2.530277 l -0.501969,-1.101356 -0.72854,0.791208 c -0.400698,0.435162 -0.770864,0.749908 -0.822593,0.699436 -0.148205,-0.144613 0.574513,-2.663839 1.12124,-3.90837 0.272851,-0.621098 0.770644,-1.480496 1.106208,-1.909777 0.757264,-0.968747 1.062337,-0.783204 1.803975,1.097156 0.786353,1.993736 0.721456,4.41949 -0.211056,7.888971 -1.300205,4.837522 -3.60616,8.168441 -6.244537,9.020151 -1.573722,0.508021 -3.212114,0.666792 -4.087398,0.39609 z M 49.168624,92.944539 c 0.09463,-0.312347 0.505195,-1.286473 0.912385,-2.164722 0.718946,-1.550673 0.79008,-1.620313 2.461501,-2.409892 0.946639,-0.447188 2.348317,-1.184209 3.11484,-1.637818 1.577189,-0.933345 1.651507,-0.839897 0.896977,1.127865 -0.598262,1.56022 -1.391903,2.280908 -4.438361,4.030365 -2.985376,1.714381 -3.167017,1.77935 -2.947342,1.054202 z m 74.051846,-17.57261 c 0,-0.03973 0.79077,-0.584482 1.75725,-1.210556 8.22103,-5.325455 11.31932,-8.789534 16.91809,-18.915438 2.75697,-4.986234 2.60566,-4.737788 2.7812,-4.566502 0.07,0.06826 -0.69573,1.7622 -1.70153,3.764311 -2.77104,5.51595 -4.96989,11.338626 -4.96989,13.160535 0,0.276683 -0.0958,0.560827 -0.21287,0.63143 -0.24501,0.147754 -0.51427,-0.972879 -0.51427,-2.140351 v -0.798265 l -2.36319,2.331347 c -3.8087,3.757371 -8.02075,6.736821 -10.59077,7.491528 -0.60721,0.17831 -1.10402,0.291693 -1.10402,0.251961 z"
         id="path83" />
    </g>
  </g>
</svg>
